<svg xmlns="http://www.w3.org/2000/svg" data-name="Layer 1" viewBox="0 0 3500 2000"><path fill="#ffb27d" d="M1553.44,923.15C1550.23,868.53,1388,1071,1388,1071v321c-51,13.15-86,54.16-86,78.22,0,30.52,24.09,56.23,69.08,56.23,0,0,79-1.1,106.83-8.84,28.92-8,31.23-28.66,36.15-50.6C1535,1373.79,1556.14,969,1553.44,923.15Z"/><path fill="#ffb27d" d="M1606.46,1483.83c-45,0-69.08-25.7-69.08-56.23s56.23-88.36,130.13-81.93,258.65,35.34,258.65,57.84-6.43,49.8-35.34,49.8S1606.46,1483.83,1606.46,1483.83Z"/><path fill="#ffd19f" d="M1619.31,473.31c133.34,1.61,119.69-21.68,286,109.25,101.87,80.22,238.07,455.76,249,504.46,81.93,364.68-338.59,488.35-441.8,393.6C1492,1278.2,1794.42,756.07,1728.56,695S1619.31,473.31,1619.31,473.31Z"/><path fill="#ffd19f" d="M1739.85,935.2c-3.21-54.63-182.34-21.69-182.34-21.69l14.75,505.08c-47.64,14.72-79.82,53.4-79.82,76.49,0,30.52,31.8,52.77,93.78,57,96.4,6.63,116.68-35.34,116.68-57.83C1702.9,1486.37,1742.58,981.54,1739.85,935.2Z"/><path fill="#ffb27d" d="M2150.26,1364.91c40-12.08,121.55-26.26,189.36-19,95.38,10.22,162.76,133.36,50,236.62-33,30.21-79,42.72-79,42.72s3.59-25.62-16.57-7c-71.17,65.9-192.17,28.43-192.17,28.43s231.69-97.63,195.88-185c-24.86-60.64-140.06-38.69-140.06-38.69Z"/><path fill="#ffb27d" d="M1294,569.71c-38.55,9.64-108.44,115.67-115.67,245.8s14.46,190.38,33.74,190.38,67.47-89.17,77.11-156.64S1294,569.71,1294,569.71Z"/><path fill="#ffd19f" d="M1398.08,1151.63c115.67,24.5,184-57.83,248.21-169.49,45.77-79.53,154.23-412.08,149.41-462.69s-144.59-81.93-248.21-79.52-260.27,31.33-286.77,135S1248.88,1120,1398.08,1151.63Z"/><path fill="#ffb27d" d="M1754.26,1559.34c-45,0-69.08-25.7-69.08-56.23s56.23-88.36,130.13-81.93S2074,1456.52,2074,1479s-6.42,49.81-35.34,49.81S1754.26,1559.34,1754.26,1559.34Z"/><path fill="#b75e6d" d="M1415,885.27c23.28-4.82,43.83,15,67.15,12.57,29.68-3.12,67.22-22.05,70.78-16.46,5,6.66-47.82,32-68.89,34.41-21.71,2.51-39-8.16-56.44-18.21C1423.89,894.49,1405.18,887.31,1415,885.27Z"/><path fill="#b75e6d" d="M1348.2,890.82c-4.09,4.6-19.71,23.37-38,24.86-18.74,1.53-45.16-12.95-53.08-22-2.82-3.21-1.19-6.57,1.84-5.73,14.71,4.08,37.65,13.53,50,12.88,9.14-.48,29.07-13.27,31-14.71C1346.53,881.35,1351.71,886.88,1348.2,890.82Z"/><path fill="#b75e6d" d="M1364.27,1060.91c99-9.54,124.11,10.84,131.34,28.92s-62.46,66.07-106.14,64.86c-21.71-.6-87.65-47.29-76.51-77.11C1319.79,1059.3,1343.74,1062.89,1364.27,1060.91Z"/><path fill="#ffb27d" d="M1547,562.48c58.12-15.85,156.63,2.41,192.78,2.41s79.53,115.67,79.53,173.5-60.25,243.4-103.63,277.13-79.52,55.43-89.16,9.64-101.21-192.78-113.26-272.31S1520.51,569.71,1547,562.48Z"/><path fill="#ffb27d" d="M2032.19,1511.15C1998,1477,1747.83,1382.62,1735,1222s1.61-215.28,77.12-210.46,290.78,102.82,345.4,183.15,72.3,274.72,53,292.39S2038.62,1517.57,2032.19,1511.15Z"/><path fill="#cad7ff" d="M1241.94,1335.91c-170.78,72.12-336.85-90.93-298-293.5,23.56-122.94,223.56-98,135.89,100.59-55.08,124.75-211.44,197.93-341.71,194.86-56.74-1.33-138.62-24.27-202.12-81.86-32-29-52.46-67.59-36-106.77,28.22-67.17,108.22-23.17,127.23,67.38.69,3.19,2.43,11.34,3.1,14.46,29.32,156.21-94.67,201.75-214.86,140.31l-34.29-18.76c-83.52-44-201.64-83-294.19-71-.94.81-6.71-.66-.93-1.82,99.7-13.13,211.42,26.56,296.83,69.58l34.36,18.57c124,61.75,236.36,9.49,207.49-135.81l-3.12-14.18c-21.87-88.35-91.05-125.06-115.38-66-15.87,38.55,7,73.4,34.58,98.39,67.87,61.48,144.1,77.37,197.52,78.92,134.58,3.91,282.11-78.57,332.19-191.69,80.51-181.86-96-193.63-114.09-92.53-33.83,188.66,118.88,347.12,277.78,277.22C1247.68,1318.59,1251.88,1331.57,1241.94,1335.91Z"/><path fill="#abbaf4" d="M2179.68,924.18c254.5,367.05,751,153.37,631,35.88-125.71-139.66-520,141.18-421.75,303.5,2.12,3.93,4.59,7.65,7,11.43,79.28,118.89,247.91,63.89,360.77,51.35,33-4,66.17-7.06,98.95-1.06,32.38,6.16,88.67,29.46,66.42,70-38.57,56.14-144.9,55.61-197,42.44-180.66-40.7-161.28-192.45-47.82-229.65,134-43,298.65,52.17,399.69,119.33,111.62,74.19,241.08,209.7,321,125.9,18-18.88,28-46.44,30.94-58.35.71-2.82,3.55-3.11,2.53.12-55.82,177.06-204.88,45.17-316.3-35.55-68.95-50-129.76-88.13-202-118.59-306.39-128.43-395.31,104.19-242.22,170.75,162.26,75.12,334.31-32.66,198.75-73.89-56.37-16-115.31-1.3-171.93,6.55-109,17.77-241.88,39.12-310-63.88-2.51-4-5.12-7.89-7.36-12C2267,1077.89,2749.5,764.56,2840.72,985.75c14.55,59-58.89,103.33-98.71,121.19-101.31,44.57-218.75,47.35-322.52,15.45a459.18,459.18,0,0,1-153.12-81.92c-37.39-30.11-82-80-99.37-109.23C2162.88,924.29,2175.57,918.17,2179.68,924.18Z"/><ellipse cx="848.64" cy="1515.86" fill="#abbaf4" rx="50.61" ry="20.48"/><ellipse cx="885.87" cy="1480.47" fill="#abbaf4" rx="29.4" ry="11.9"/><ellipse cx="931.36" cy="1501.26" fill="#abbaf4" rx="29.4" ry="11.9"/><ellipse cx="930.58" cy="1532.43" fill="#abbaf4" rx="29.4" ry="11.9"/><ellipse cx="1113.73" cy="1550.81" fill="#abbaf4" rx="50.61" ry="20.48"/><ellipse cx="1150.95" cy="1515.41" fill="#abbaf4" rx="29.4" ry="11.9"/><ellipse cx="1196.44" cy="1536.2" fill="#abbaf4" rx="29.4" ry="11.9"/><ellipse cx="1195.66" cy="1567.37" fill="#abbaf4" rx="29.4" ry="11.9"/></svg>